# xmcd
#
# Track frame offsets:
# 150
# 12799
# 29252
# 42018
# 59282
# 77605
# 103896
# 118677
# 133435
# 148608
# 170387
# 190821
# 207677
# 224030
# 237933
# 258918
#
# Disc length: 3698 seconds
#
#
# Revision: 0
# Processed by: cddbd v1.5.2PL0 Copyright (c) Steve Scherf et al.
# Submitted via: FreeRIP 2.951 
#
DISCID=ed0e7010
DTITLE=Ivonir Machado and os Novos Garotos - 
DYEAR=1900
DGENRE=Folk
TTITLE0=Novos Garotos na Vanera
TTITLE1=Turum Tum Tum
TTITLE2=Alô Mulherada
TTITLE3=Balanço Black - part. Carla Cristina
TTITLE4=Quebradeira
TTITLE5=Barquinho - Me Bate Nega Véia - part. grupo candieiro
TTITLE6=Tentei te Esquecer
TTITLE7=Chevetão
TTITLE8=O Que Achou do Balanço
TTITLE9=O Socadão
TTITLE10=Não Desligue o Rádio
TTITLE11=Um Bagual Corcoveador - part. João Luiz Correia
TTITLE12=Te Amo Tanto
TTITLE13=Vai Bomba - part. Gabriel Valim e Henrique
TTITLE14=Rei da Zona - Boate Aul - Telefone Mudo
TTITLE15=Vou Tomá Um Pingão - Relógio da Matria
EXTD=
EXTT0=
EXTT1=
EXTT2=
EXTT3=
EXTT4=
EXTT5=
EXTT6=
EXTT7=
EXTT8=
EXTT9=
EXTT10=
EXTT11=
EXTT12=
EXTT13=
EXTT14=
EXTT15=
PLAYORDER=
